<svg xmlns="http://www.w3.org/2000/svg" width="16.291" height="21.513" viewBox="0 0 16.291 21.513"><defs><style>.a{fill:#393b44;}</style></defs><g transform="translate(-758.539 -554.889)"><path class="a" d="M773.4,563.933V561.61a6.721,6.721,0,0,0-13.442,0,.962.962,0,1,0,1.924,0,4.8,4.8,0,0,1,9.593,0v2.321H760.042a1.505,1.505,0,0,0-1.5,1.5v7.224a3.747,3.747,0,0,0,3.743,3.743h8.806a3.747,3.747,0,0,0,3.743-3.743v-7.224A1.506,1.506,0,0,0,773.4,563.933Zm-.5,8.726a1.821,1.821,0,0,1-1.818,1.819h-8.8a1.821,1.821,0,0,1-1.818-1.819v-6.8h12.438Z" transform="translate(0)"/><path class="a" d="M783.059,610.292a2.552,2.552,0,1,0-2.552-2.552A2.556,2.556,0,0,0,783.059,610.292Zm0-3.185a.63.63,0,1,1-.628.632A.629.629,0,0,1,783.059,607.107Z" transform="translate(-16.373 -37.487)"/></g></svg>