<svg xmlns="http://www.w3.org/2000/svg" width="25.661" height="24.528" viewBox="0 0 25.661 24.528"><defs><style>.a{fill:#0076c0;}</style></defs><g transform="translate(-0.001 -0.001)"><path class="a" d="M441.855,161.043h-5.5V144.494h5.5Zm-2.75-18.809h-.036a3.143,3.143,0,1,1,.036,0Zm22.585,18.809h-5.5V152.19c0-2.225-.8-3.742-2.787-3.742a3.011,3.011,0,0,0-2.822,2.012,3.766,3.766,0,0,0-.181,1.342v9.242h-5.5s.072-15,0-16.549h5.5v2.343a5.461,5.461,0,0,1,4.957-2.732c3.619,0,6.333,2.365,6.333,7.448Zm0,0" transform="translate(-436.029 -136.515)"/></g></svg>