<svg xmlns="http://www.w3.org/2000/svg" width="16" height="16" viewBox="0 0 16 16"><defs><style>.a{fill:none;opacity:0;}.b{fill:#808994;}.c{fill:#393b44;stroke:#3f4348;}</style></defs><rect class="a" width="16" height="16"/><path class="b" d="M3.542,4.818h0a.46.46,0,0,1-.189-.041A.426.426,0,0,1,3.23,4.7a.4.4,0,0,1-.049-.054L.089.68A.414.414,0,0,1,0,.426.42.42,0,0,1,.177.085.455.455,0,0,1,.8.17L3.542,3.685,6.286.17a.456.456,0,0,1,.62-.085.417.417,0,0,1,.177.341A.409.409,0,0,1,6.995.68L3.9,4.641a.472.472,0,0,1-.049.054.419.419,0,0,1-.121.082A.451.451,0,0,1,3.542,4.818Z" transform="translate(11.083 6.818) rotate(180)"/><path class="c" d="M3.542,0h0a.46.46,0,0,0-.189.041A.426.426,0,0,0,3.23.123a.4.4,0,0,0-.049.054L.089,4.138A.414.414,0,0,0,0,4.392a.42.42,0,0,0,.177.341A.455.455,0,0,0,.8,4.648L3.542,1.134,6.286,4.648a.456.456,0,0,0,.62.085.417.417,0,0,0,.177-.341.409.409,0,0,0-.089-.254L3.9.178A.472.472,0,0,0,3.853.123.419.419,0,0,0,3.732.042.451.451,0,0,0,3.542,0Z" transform="translate(11.083 14.818) rotate(180)"/></svg>