<svg xmlns="http://www.w3.org/2000/svg" width="15.775" height="15.053" viewBox="0 0 15.775 15.053"><defs><style>.a{fill:#ff3442;}</style></defs><path class="a" d="M18749.889,14839.988l-5.717-5.392-5.721,5.392a1.27,1.27,0,0,1-1.816-.064,1.315,1.315,0,0,1,.061-1.845l5.586-5.268-5.586-5.265a1.32,1.32,0,0,1-.061-1.846,1.276,1.276,0,0,1,1.816-.065l5.721,5.394,5.717-5.394a1.285,1.285,0,0,1,1.824.065,1.313,1.313,0,0,1-.062,1.846l-5.588,5.265,5.588,5.268a1.312,1.312,0,0,1,.063,1.845,1.286,1.286,0,0,1-.945.415A1.272,1.272,0,0,1,18749.889,14839.988Z" transform="translate(-18736.287 -14825.287)"/></svg>