<svg xmlns="http://www.w3.org/2000/svg" width="13.04" height="17.142" viewBox="0 0 13.04 17.142"><defs><style>.a{fill:#393b44;}</style></defs><g transform="translate(-0.175 0.969)"><path class="a" d="M5.181,10.36a5.18,5.18,0,1,1,5.182-5.18A5.187,5.187,0,0,1,5.181,10.36Zm0-8.633A3.453,3.453,0,1,0,8.636,5.18,3.457,3.457,0,0,0,5.181,1.727Z" transform="translate(1.285 -0.969)"/><path class="a" d="M13.032,5.874H.008a.01.01,0,0,1,0,0A5.814,5.814,0,0,1,.1,4.5,5.4,5.4,0,0,1,1.381,1.843,6.648,6.648,0,0,1,6.51,0a6.669,6.669,0,0,1,5.136,1.844,5.345,5.345,0,0,1,1.287,2.661,5.665,5.665,0,0,1,.1,1.369ZM6.514,1.492a5.665,5.665,0,0,0-2.4.485A4.267,4.267,0,0,0,2.685,3.043a4.057,4.057,0,0,0-.859,1.551H11.2a4.009,4.009,0,0,0-.858-1.551A4.265,4.265,0,0,0,8.917,1.977,5.662,5.662,0,0,0,6.514,1.492Z" transform="translate(0.175 10.299)"/></g></svg>